<svg width="128" height="41" viewBox="0 0 128 41" fill="none" xmlns="http://www.w3.org/2000/svg">
<path d="M15.2126 0H23.3414L38.4959 41H30.251L26.4188 30.7789H12.0191L8.24498 41H0L15.2126 0ZM24.9672 25.1775L19.277 8.25775L13.3546 25.1775H24.9672Z" fill="white"/>
<path d="M47.3143 0L57.5334 15.1296L67.6945 0H76.404L62.1204 20.7887L75.9395 41H67.23L57.5334 26.4479L47.7788 41H39.0112L52.8303 20.7887L38.5467 0H47.3143Z" fill="white"/>
<path d="M80.5546 41V0H88.5673V41H80.5546Z" fill="#EC7979"/>
<path d="M128 6.98732H114.82V41H106.865V6.98732H93.6846V0H128V6.98732Z" fill="#EC7979"/>
</svg>
